<svg version="1.0" xmlns="http://www.w3.org/2000/svg" width="1000" height="563" viewBox="0 0 1000 563" fill="#CCCCCC"
  preserveAspectRatio="xMidYMid meet">
  <g transform="translate(0,563) scale(0.1,-0.1)" stroke="none">
    <path d="M4294 5131 c-50 -23 -82 -72 -184 -284 l-70 -147 -196 0 c-216 0
-246 -6 -283 -58 -13 -18 -38 -96 -61 -188 -22 -87 -43 -161 -48 -166 -4 -4
-50 -15 -102 -23 -296 -48 -324 -58 -357 -125 -24 -49 -29 -133 -53 -915 -14
-436 -14 -514 0 -549 13 -34 48 -70 195 -196 61 -52 112 -97 115 -100 14 -14
157 -136 245 -210 55 -46 102 -87 105 -90 20 -24 267 -224 307 -249 82 -51
170 -38 240 35 70 72 76 136 27 274 -36 102 -54 183 -54 241 1 228 210 429
447 429 127 0 276 -80 355 -190 14 -19 63 -129 111 -245 47 -115 126 -309 175
-430 123 -302 139 -336 170 -368 62 -66 13 -62 825 -65 l738 -3 45 26 c27 16
52 41 64 65 20 39 20 59 20 1280 l0 1242 -67 66 c-38 37 -95 90 -128 118 -33
28 -98 84 -145 124 -47 40 -96 82 -110 94 -14 12 -81 68 -150 126 -69 58 -136
114 -150 126 -69 60 -328 272 -350 287 -27 18 -94 23 -133 8 -13 -5 -66 -41
-118 -80 -52 -39 -99 -71 -106 -71 -12 0 -82 31 -248 110 -246 117 -269 118
-363 16 -25 -27 -51 -46 -64 -46 -11 0 -102 23 -202 51 -298 84 -309 87 -356
93 -33 4 -56 1 -86 -13z m201 -121 c141 -36 370 -103 378 -109 4 -4 -7 -27
-25 -52 -42 -57 -335 -453 -407 -548 -148 -196 -248 -340 -255 -366 -9 -36 8
-114 135 -623 55 -217 99 -400 99 -408 0 -8 -7 -14 -16 -14 -23 0 -122 -48
-173 -84 l-43 -31 -16 23 c-14 21 -105 210 -162 337 -12 28 -46 102 -75 165
-83 181 -99 216 -159 356 -31 72 -56 136 -56 142 0 6 18 50 41 99 23 48 54
117 71 152 39 86 347 703 385 771 16 30 47 87 68 127 53 99 60 101 210 63z
m853 -90 c89 -43 162 -83 162 -87 -1 -4 -42 -42 -92 -83 -88 -72 -340 -277
-423 -343 -71 -58 -240 -200 -256 -216 -37 -39 -39 -69 -39 -685 l0 -602 -87
8 c-48 5 -87 10 -88 11 -5 12 -210 851 -222 909 l-16 76 43 63 c108 158 689
926 754 997 47 50 75 45 264 -48z m588 31 c38 -23 694 -569 734 -611 3 -3 65
-56 138 -119 73 -62 138 -123 144 -134 8 -16 13 -340 16 -1217 l4 -1195 -29
-28 -30 -28 -714 3 c-393 2 -722 7 -732 12 -20 10 -37 43 -122 256 -288 715
-303 747 -356 817 -37 48 -137 133 -168 145 -6 2 -11 245 -13 630 -3 616 -3
627 17 645 11 10 58 50 105 88 47 38 87 72 90 75 6 6 117 96 260 211 58 46
107 86 110 89 8 9 337 271 413 328 38 29 76 52 85 52 9 0 31 -9 48 -19z
m-2034 -360 c32 -4 60 -10 63 -13 5 -5 -125 -279 -280 -588 -101 -200 -105
-177 90 -595 102 -219 287 -622 306 -665 l21 -48 -38 -94 c-26 -64 -39 -113
-42 -158 -2 -36 -8 -69 -12 -74 -11 -11 -155 172 -500 634 -194 259 -184 242
-177 297 3 26 24 125 47 218 65 270 85 356 140 590 91 387 119 477 153 493 25
12 145 14 229 3z m-477 -443 c-14 -61 -111 -466 -155 -649 -54 -223 -59 -275
-33 -317 33 -51 218 -298 448 -597 266 -345 397 -520 414 -553 10 -19 9 -29
-7 -60 -24 -48 -58 -67 -103 -58 -31 5 -107 61 -224 164 -17 15 -59 52 -95 82
-61 51 -352 303 -376 325 -6 5 -42 37 -80 70 -123 107 -166 150 -175 172 -9
24 5 633 25 1066 15 331 9 316 141 342 221 42 227 42 220 13z" />
    <path d="M5595 3622 c-89 -8 -122 -24 -155 -77 -19 -31 -20 -49 -20 -389 0
-322 2 -359 17 -384 25 -38 35 -47 70 -66 28 -14 78 -16 384 -16 330 0 354 1
383 19 17 11 41 33 52 48 21 27 22 45 29 374 7 344 7 345 -15 393 -13 26 -38
58 -56 72 l-33 26 -288 3 c-158 2 -324 0 -368 -3z m235 -257 l0 -155 -155 0
-155 0 0 122 0 122 32 33 32 33 123 0 123 0 0 -155z m393 127 c26 -27 27 -31
27 -155 l0 -127 -155 0 -155 0 0 155 0 155 128 0 c127 0 128 0 155 -28z m-393
-549 l0 -158 -122 5 c-125 5 -159 15 -173 47 -4 10 -10 73 -13 141 l-4 122
156 0 156 0 0 -157z m420 35 c0 -120 -1 -124 -28 -155 l-29 -32 -126 -3 -127
-3 0 158 0 157 155 0 155 0 0 -122z" />
    <path d="M4472 2640 c-80 -19 -153 -96 -184 -194 -23 -72 -17 -115 39 -261 52
-137 73 -175 97 -175 69 1 441 156 482 201 17 19 16 23 -36 152 -60 150 -85
188 -147 236 -60 46 -160 63 -251 41z m192 -83 c22 -12 52 -40 67 -62 36 -53
102 -213 95 -231 -8 -20 -99 -70 -201 -109 -117 -45 -176 -58 -191 -42 -9 11
-33 66 -75 177 -71 186 131 363 305 267z" />
    <path d="M2027 1273 c-4 -3 -7 -42 -7 -85 0 -77 0 -78 -25 -78 -23 0 -25 -3
-25 -50 0 -47 2 -50 25 -50 l25 0 0 -175 0 -175 55 0 55 0 0 175 0 175 35 0
35 0 0 50 0 50 -35 0 -35 0 0 85 0 85 -48 0 c-27 0 -52 -3 -55 -7z" />
    <path d="M4270 1175 c0 -58 -2 -105 -5 -105 -2 0 -23 10 -46 22 -56 29 -143
29 -190 0 -78 -48 -109 -109 -109 -214 0 -131 76 -219 197 -226 52 -4 69 0
107 21 42 23 45 24 49 6 4 -15 15 -19 56 -19 l51 0 0 310 0 310 -55 0 -55 0 0
-105z m-50 -182 c37 -22 50 -52 50 -118 0 -46 -5 -60 -28 -86 -24 -27 -38 -33
-83 -37 -67 -5 -99 17 -125 83 -16 43 -16 47 0 90 10 25 29 54 43 65 32 25
104 27 143 3z" />
    <path d="M4500 970 l0 -310 51 0 c42 0 52 3 56 20 5 19 7 19 51 -7 113 -67
249 -8 297 128 41 116 -11 252 -114 296 -51 22 -145 18 -185 -6 -18 -12 -36
-21 -40 -21 -3 0 -6 47 -6 105 l0 105 -55 0 -55 0 0 -310z m270 40 c32 0 78
-56 85 -105 17 -113 -90 -194 -184 -139 -62 37 -79 141 -34 203 21 27 78 53
101 45 8 -2 22 -4 32 -4z" />
    <path d="M5610 970 l0 -310 55 0 55 0 0 310 0 310 -55 0 -55 0 0 -310z" />
    <path d="M9460 970 l0 -310 55 0 55 0 0 310 0 310 -55 0 -55 0 0 -310z" />
    <path d="M445 1258 c-6 -15 9 -65 85 -278 29 -80 66 -184 83 -232 l30 -88 58
0 c51 0 58 3 64 23 12 36 133 375 171 474 20 51 33 97 29 103 -3 5 -28 10 -54
10 l-49 0 -20 -52 c-36 -94 -72 -193 -72 -200 0 -15 -62 -168 -69 -168 -3 0
-21 39 -38 88 -17 48 -51 141 -75 207 l-43 120 -48 3 c-33 2 -49 -1 -52 -10z" />
    <path d="M1180 1104 c-142 -62 -183 -266 -77 -381 54 -58 87 -74 153 -74 40 0
67 6 99 25 42 23 45 24 45 5 0 -16 7 -19 55 -19 l55 0 0 225 0 225 -55 0 c-52
0 -55 -1 -55 -26 l0 -25 -28 20 c-29 20 -98 41 -137 40 -11 0 -36 -7 -55 -15z
m145 -98 c103 -44 98 -218 -7 -253 -72 -24 -149 25 -164 102 -12 64 21 125 80
151 40 17 49 17 91 0z" />
    <path d="M1716 1110 c-25 -5 -50 -19 -68 -39 -23 -26 -28 -40 -28 -85 0 -49 3
-57 34 -83 18 -17 58 -44 89 -62 64 -36 74 -54 47 -81 -26 -26 -36 -25 -89 5
l-44 26 -28 -33 c-16 -18 -28 -36 -29 -40 -1 -16 69 -58 113 -68 90 -20 174
25 196 104 18 69 -26 130 -138 191 -82 45 -56 93 31 58 37 -15 41 -15 66 4 40
30 38 48 -5 77 -44 29 -92 37 -147 26z" />
    <path d="M2977 1106 c-107 -38 -157 -111 -157 -226 0 -90 27 -143 98 -192 44
-31 52 -33 133 -33 79 0 88 2 125 30 86 65 99 91 99 195 0 75 -3 90 -26 125
-15 22 -35 48 -46 57 -48 44 -163 66 -226 44z m159 -132 c30 -31 34 -42 34
-87 0 -91 -44 -137 -130 -137 -108 0 -156 157 -72 235 22 20 37 25 81 25 49 0
57 -3 87 -36z" />
    <path d="M6510 1109 c-113 -34 -176 -167 -141 -297 16 -56 71 -116 126 -138
59 -22 145 -15 185 15 25 18 31 19 36 7 9 -23 -26 -85 -57 -101 -39 -21 -94
-19 -162 5 -56 20 -118 26 -130 14 -10 -10 25 -63 58 -88 54 -40 90 -49 178
-44 121 7 184 48 206 134 6 24 11 140 11 268 l0 226 -50 0 c-43 0 -50 -3 -50
-20 0 -25 -14 -25 -54 -1 -39 24 -110 33 -156 20z m176 -132 c50 -59 37 -169
-25 -201 -91 -47 -191 10 -191 109 0 43 13 72 49 103 22 21 34 23 85 20 49 -4
63 -9 82 -31z" />
    <path d="M7083 1110 c-18 -4 -49 -20 -69 -35 -98 -75 -117 -217 -43 -328 54
-82 170 -111 261 -67 51 25 48 25 48 -5 0 -14 -13 -39 -28 -56 -24 -27 -37
-33 -84 -37 -39 -3 -64 1 -88 13 -36 19 -150 33 -150 19 0 -22 43 -76 81 -101
87 -57 268 -39 327 33 45 54 52 100 52 343 l0 221 -55 0 c-52 0 -55 -1 -55
-26 l0 -25 -29 20 c-22 16 -127 47 -135 40 0 -1 -16 -5 -33 -9z m156 -125 c92
-78 42 -225 -76 -225 -119 0 -173 148 -82 224 43 36 115 36 158 1z" />
    <path d="M7660 1109 c-73 -22 -140 -89 -160 -160 -32 -109 24 -235 125 -283
43 -21 163 -21 213 0 35 14 92 60 92 75 0 14 -90 41 -103 31 -7 -6 -33 -16
-59 -22 -59 -15 -107 -1 -143 41 -48 58 -44 59 161 59 l186 0 -7 48 c-14 91
-57 157 -128 193 -47 24 -128 33 -177 18z m103 -90 c36 -10 87 -50 87 -69 0
-5 -16 -12 -35 -16 -43 -8 -191 -2 -201 9 -13 13 31 61 67 74 43 15 37 15 82
2z" />
    <path d="M8176 1095 c-44 -23 -46 -24 -46 -5 0 17 -7 20 -50 20 l-50 0 0 -225
0 -225 60 0 60 0 0 144 c0 174 8 202 60 216 31 8 41 17 50 45 20 61 -7 71 -84
30z" />
    <path d="M8402 1106 c-88 -40 -109 -121 -48 -192 18 -21 61 -54 94 -73 71 -40
82 -58 52 -83 -25 -20 -57 -16 -106 13 l-32 19 -26 -31 c-14 -17 -26 -34 -26
-39 0 -17 67 -60 106 -68 108 -23 204 44 204 140 0 46 -39 89 -124 141 -77 46
-87 60 -56 77 16 8 30 7 64 -8 l44 -20 26 25 c38 34 33 59 -14 83 -54 28 -117
34 -158 16z" />
    <path d="M9165 1110 c-16 -4 -44 -14 -61 -23 -30 -16 -32 -16 -37 3 -4 17 -14
20 -56 20 l-51 0 0 -225 0 -225 55 0 55 0 0 130 c0 95 4 141 15 167 20 47 29
53 86 53 63 0 70 -18 77 -202 l5 -148 55 0 54 0 -4 180 c-4 161 -6 183 -24
207 -42 56 -102 78 -169 63z" />
    <path d="M2365 1095 c-16 -8 -44 -31 -61 -50 -99 -111 -55 -323 78 -371 67
-25 154 -14 201 24 15 14 17 13 17 -12 0 -39 -24 -80 -55 -94 -36 -16 -116
-15 -141 2 -24 17 -115 31 -139 22 -37 -14 41 -99 114 -124 42 -15 143 -15
193 -2 45 13 93 52 115 93 17 34 32 219 33 415 l0 112 -55 0 c-47 0 -55 -3
-55 -18 0 -30 -10 -32 -47 -6 -29 19 -48 24 -102 24 -39 0 -78 -6 -96 -15z
m155 -85 c30 0 77 -55 85 -100 14 -84 -35 -150 -114 -150 -54 0 -87 17 -112
57 -28 45 -22 122 12 159 24 25 74 45 97 38 8 -2 22 -4 32 -4z" />
    <path d="M3495 1099 c-37 -21 -87 -74 -106 -111 -25 -48 -26 -165 -3 -211 23
-45 63 -86 106 -108 47 -24 174 -26 222 -4 33 16 86 61 86 73 0 4 -19 16 -42
26 -37 17 -43 17 -67 4 -70 -41 -154 -29 -198 28 -22 29 -24 37 -12 45 8 5 92
9 187 9 195 0 184 -6 160 88 -14 58 -50 111 -97 143 -30 20 -51 24 -126 27
-55 1 -98 -2 -110 -9z m179 -98 c40 -22 56 -49 36 -61 -21 -14 -217 -13 -226
1 -9 15 45 68 81 78 35 10 69 5 109 -18z" />
    <path d="M5175 1094 c-72 -37 -125 -127 -125 -213 0 -88 56 -178 133 -214 49
-24 169 -22 222 2 37 17 94 67 84 74 -2 2 -23 11 -45 21 -39 17 -43 17 -75 1
-18 -10 -57 -18 -86 -19 -48 0 -57 3 -90 36 -63 63 -51 68 155 68 l178 0 -6
53 c-4 28 -11 61 -15 72 -15 38 -74 102 -109 119 -46 21 -180 22 -221 0z m146
-74 c19 -5 48 -23 63 -39 27 -29 28 -29 8 -40 -22 -12 -179 -15 -206 -5 -9 3
-16 12 -16 18 0 24 68 73 105 75 6 1 26 -4 46 -9z" />
    <path d="M5912 1080 c-63 -45 -93 -98 -99 -172 -7 -79 8 -132 49 -182 45 -54
97 -76 186 -76 80 0 117 12 173 59 l34 29 -49 22 c-44 21 -50 22 -74 8 -67
-38 -156 -28 -191 21 -43 60 -40 61 163 61 l184 0 -13 58 c-16 73 -23 89 -54
131 -38 51 -91 71 -187 71 -74 0 -84 -2 -122 -30z m170 -60 c20 -6 49 -25 63
-42 24 -28 25 -32 9 -41 -18 -10 -220 -5 -231 6 -11 11 49 67 82 76 40 12 35
12 77 1z" />
    <path d="M8743 758 c-18 -9 -23 -20 -23 -48 0 -43 18 -62 57 -62 29 0 63 33
63 62 0 19 -45 60 -64 59 -6 0 -21 -5 -33 -11z" />
  </g>
</svg>